<?xml version="1.0" standalone="no"?>
<!DOCTYPE svg PUBLIC "-//W3C//DTD SVG 1.1//EN" "http://www.w3.org/Graphics/SVG/1.1/DTD/svg11.dtd" >
<svg xmlns="http://www.w3.org/2000/svg">
<metadata>
Created by FontForge 20120731 at Thu Dec 29 17:56:29 2016
 By admin
</metadata>
<defs>
<font id="iconfont" horiz-adv-x="1024" >
  <font-face 
    font-family="iconfont"
    font-weight="500"
    font-stretch="normal"
    units-per-em="1024"
    panose-1="2 0 6 3 0 0 0 0 0 0"
    ascent="896"
    descent="-128"
    x-height="792"
    bbox="0 -119 1024 887"
    underline-thickness="0"
    underline-position="0"
    unicode-range="U+0078-E61B"
  />
<missing-glyph 
 />
    <glyph glyph-name=".notdef" 
 />
    <glyph glyph-name=".notdef" 
 />
    <glyph glyph-name=".null" horiz-adv-x="0" 
 />
    <glyph glyph-name="nonmarkingreturn" horiz-adv-x="341" 
 />
    <glyph glyph-name="x" unicode="x" horiz-adv-x="1001" 
d="M281 543q-27 -1 -53 -1h-83q-18 0 -36.5 -6t-32.5 -18.5t-23 -32t-9 -45.5v-76h912v41q0 16 -0.5 30t-0.5 18q0 13 -5 29t-17 29.5t-31.5 22.5t-49.5 9h-133v-97h-438v97zM955 310v-52q0 -23 0.5 -52t0.5 -58t-10.5 -47.5t-26 -30t-33 -16t-31.5 -4.5q-14 -1 -29.5 -0.5
t-29.5 0.5h-32l-45 128h-439l-44 -128h-29h-34q-20 0 -45 1q-25 0 -41 9.5t-25.5 23t-13.5 29.5t-4 30v167h911zM163 247q-12 0 -21 -8.5t-9 -21.5t9 -21.5t21 -8.5q13 0 22 8.5t9 21.5t-9 21.5t-22 8.5zM316 123q-8 -26 -14 -48q-5 -19 -10.5 -37t-7.5 -25t-3 -15t1 -14.5
t9.5 -10.5t21.5 -4h37h67h81h80h64h36q23 0 34 12t2 38q-5 13 -9.5 30.5t-9.5 34.5q-5 19 -11 39h-368zM336 498v228q0 11 2.5 23t10 21.5t20.5 15.5t34 6h188q31 0 51.5 -14.5t20.5 -52.5v-227h-327z" />
    <glyph glyph-name="account" unicode="&#xe600;" 
d="M512 834q-92 0 -175 -35.5t-143.5 -96t-96 -143.5t-35.5 -175t35.5 -175t96 -143.5t143.5 -96t175 -35.5t175 35.5t143.5 96t96 143.5t35.5 175t-35.5 175t-96 143.5t-143.5 96t-175 35.5zM708 35q-99 25 -100 107q0 10 -3 23t-3 21t6 14q10 12 21.5 40t16.5 55
q1 6 10.5 12.5t18.5 17.5t9 28q6 6 7.5 16.5t-0.5 19.5t-4.5 21t-2.5 19q3 40 0.5 84t-19.5 69q-37 56 -94.5 76t-115.5 0t-96 -76q-6 -8 -10 -19.5t-6 -21.5t-3 -27t-1 -26t0.5 -30t0.5 -29q0 -7 -3 -19t-5 -21t-0.5 -19t8.5 -17q0 -13 5.5 -22.5t12 -13.5t13 -9.5
t7.5 -12.5q17 -75 38 -95q9 -9 9 -17t-4.5 -19.5t-4.5 -21.5q0 -82 -100 -107q-93 53 -148.5 146t-55.5 203q0 109 53.5 201t145.5 145.5t201 53.5t201 -53.5t145.5 -145.5t53.5 -201q0 -110 -55.5 -203t-148.5 -146z" />
    <glyph glyph-name="address" unicode="&#xe601;" 
d="M512 -66q-10 0 -17 8l-239 278q-104 123 -104 254q0 98 48 181t131 131t181 48t181 -48t131 -131t48 -181q0 -132 -104 -253l-239 -279q-7 -8 -17 -8zM512 789q-130 0 -222.5 -92.5t-92.5 -222.5q0 -114 94 -224l221 -259l222 259q93 109 93 224q0 130 -92.5 222.5
t-222.5 92.5zM512.5 294q-74.5 0 -127.5 53t-53 127.5t53 127t127 52.5t127 -52.5t53 -127t-52.5 -127.5t-127 -53zM512 609q-56 0 -95.5 -39.5t-39.5 -95.5t39.5 -95.5t95.5 -39.5t95.5 39.5t39.5 95.5t-39.5 95.5t-95.5 39.5z" />
    <glyph glyph-name="arrowdown" unicode="&#xe602;" horiz-adv-x="1025" 
d="M897 635q14 14 33.5 14.5t33.5 -13.5t14 -34t-14 -34l-403 -402v0v0q-14 -14 -33.5 -14t-33.5 14v0v0l-403 402q-14 14 -14 34t14 34t33.5 13.5t34.5 -14.5l369 -369z" />
    <glyph glyph-name="arrowup" unicode="&#xe603;" horiz-adv-x="1025" 
d="M512 518l-369 -369q-14 -14 -33.5 -14t-33.5 14t-14 33.5t14 33.5l402 403v0v0q14 14 34 14t34 -14v0v0l402 -403q14 -14 14 -33.5t-14 -33.5t-33.5 -14t-33.5 14z" />
    <glyph glyph-name="close" unicode="&#xe604;" horiz-adv-x="1025" 
d="M149 819q-15 15 -36 15t-36 -15t-15 -36t15 -36l362 -363l-362 -363q-15 -15 -15 -36t15 -36t36 -15t36 15l363 362l363 -362q15 -15 36 -15t36 15t15 36t-15 36l-362 363l362 363q15 15 15 36t-15 36t-36 15t-36 -15l-363 -362z" />
    <glyph glyph-name="logout" unicode="&#xe605;" 
d="M512 -66q-107 0 -198 53t-144 144t-53 198q0 126 73 229t192 144q9 3 17 -1t11 -12.5t-1 -16.5t-12 -11q-106 -37 -171 -128.5t-65 -203.5q0 -95 47 -176t128 -128t176 -47t176 47t128 128t47 176q0 112 -65 203.5t-171 128.5q-8 3 -12 11t-1 16.5t11 12.5t17 1
q119 -41 192 -144t73 -229q0 -107 -53 -198t-144 -144t-198 -53zM556 790q0 19 -13 31.5t-31 12.5v0q-18 0 -31 -12.5t-13 -31.5v-219q0 -18 13 -31t31 -13v0q18 0 31 13t13 31v219z" />
    <glyph glyph-name="order" unicode="&#xe606;" 
d="M837 -66h-650q-52 0 -88.5 36.5t-36.5 88.5v650q0 52 36.5 88.5t88.5 36.5h650q52 0 88.5 -36.5t36.5 -88.5v-650q0 -52 -36.5 -88.5t-88.5 -36.5zM187 784q-31 0 -53 -22t-22 -53v-650q0 -31 22 -53t53 -22h650q31 0 53 22t22 53v650q0 31 -22 53t-53 22h-650zM812 609
q0 11 -7 18t-18 7h-550q-11 0 -18 -7t-7 -18v0q0 -10 7 -17.5t18 -7.5h550q11 0 18 7.5t7 17.5v0zM812 409q0 10 -7 17.5t-18 7.5h-550q-11 0 -18 -7.5t-7 -17.5v0q0 -10 7 -17.5t18 -7.5h550q11 0 18 7.5t7 17.5v0zM662 209q0 10 -7 17.5t-18 7.5h-400q-11 0 -18 -7.5
t-7 -17.5v0q0 -10 7 -17.5t18 -7.5h400q10 0 17.5 7.5t7.5 17.5v0z" />
    <glyph glyph-name="phone" unicode="&#xe607;" horiz-adv-x="1025" 
d="M901 -13l-237 238q26 30 58 48.5t57 1.5q10 -6 31.5 -27t41 -41t52 -53t45.5 -46.5t13.5 -32t-11.5 -32.5zM356 535l-251 252l52 37q16 12 36.5 10.5t35.5 -15.5q166 -158 175 -169q30 -41 -48 -115zM334 514q-1 -4 0 -9.5t8.5 -20.5t21.5 -34.5t42.5 -52.5t68.5 -73
q127 -127 167 -120l239 -240q-8 -7 -19.5 -13.5t-36.5 -12.5t-54.5 -4.5t-74.5 14.5t-95 39t-118 75.5t-142 118.5q-72 67 -125.5 132t-83.5 117t-47 101.5t-21 84.5t-1 68t8.5 50t12.5 31z" />
    <glyph glyph-name="shopping" unicode="&#xe608;" 
d="M405 18q0 -19 -13.5 -32.5t-32.5 -13.5t-32 13.5t-13 32.5t13 32t32 13t32.5 -13t13.5 -32zM772 63q-19 0 -32.5 -13t-13.5 -32t13.5 -32.5t32.5 -13.5t32.5 13.5t13.5 32.5t-13.5 32t-32.5 13zM960 566l-73 -265q-6 -24 -26 -39t-44 -15h-497l9 -59q2 -14 12.5 -23.5
t24.5 -9.5h451q10 0 16.5 -7t6.5 -16.5t-6.5 -16t-16.5 -6.5h-451q-31 0 -54.5 20.5t-28.5 51.5l-76 537q-2 14 -13 23t-25 9h-84q-10 0 -16.5 7t-6.5 16.5t6.5 16t16.5 6.5h84q31 0 55 -20.5t28 -51.5l10 -65h627q36 0 58 -29t13 -64zM887 476h-599l26 -184h502q21 0 27 21
zM911 602q-8 11 -22 11h-621l13 -92h619l16 57q3 13 -5 24z" />
    <glyph glyph-name="check" unicode="&#xe609;" 
d="M512 834q-92 0 -175 -35.5t-143.5 -96t-96 -143.5t-35.5 -175t35.5 -175t96 -143.5t143.5 -96t175 -35.5t175 35.5t143.5 96t96 143.5t35.5 175t-35.5 175t-96 143.5t-143.5 96t-175 35.5zM775 494l-307 -308q-18 -18 -43.5 -18t-44.5 19l-131 131q-18 18 -18 44t18 44
t43.5 18t43.5 -18l88 -88l264 264q18 18 43.5 18t43.5 -18.5t18.5 -44t-18.5 -43.5z" />
    <glyph glyph-name="clear" unicode="&#xe60a;" 
d="M512 834q-92 0 -175 -35.5t-143.5 -96t-96 -143.5t-35.5 -175t35.5 -175t96 -143.5t143.5 -96t175 -35.5t175 35.5t143.5 96t96 143.5t35.5 175t-35.5 175t-96 143.5t-143.5 96t-175 35.5zM723 173q-15 -14 -35.5 -14t-35.5 14l-140 141l-140 -141q-15 -14 -35.5 -14
t-35.5 14q-14 15 -14 35.5t14 35.5l141 140l-141 140q-14 15 -14 35.5t14 35.5q15 14 35.5 14t35.5 -14l140 -141l140 141q15 14 35.5 14t35.5 -14q14 -15 14 -35.5t-14 -35.5l-141 -140l141 -140q14 -15 14 -35.5t-14 -35.5z" />
    <glyph glyph-name="add" unicode="&#xe60b;" 
d="M537 409v400q0 10 -7.5 17.5t-17.5 7.5t-17.5 -7t-7.5 -18v-400h-400q-10 0 -17.5 -7.5t-7.5 -17.5t7 -17.5t18 -7.5h400v-400q0 -10 7.5 -17.5t17.5 -7.5t17.5 7t7.5 18v400h400q10 0 17.5 7.5t7.5 17.5t-7 17.5t-18 7.5h-400z" />
    <glyph glyph-name="delete" unicode="&#xe60c;" 
d="M287 752h450q9 0 15 6t6 14.5t-6 14.5t-15 6h-450q-9 0 -15 -6t-6 -14.5t6 -14.5t15 -6zM942 671h-103h-654h-103q-8 0 -14 -6t-6 -14.5t6 -14.5t14 -6h103v-573q0 -34 23.5 -58t57.5 -24h492q34 0 57.5 24t23.5 58v573h103q8 0 14 6t6 14.5t-6 14.5t-14 6zM799 57
q0 -17 -12 -29t-29 -12h-492q-17 0 -29 12t-12 29v573h574v-573zM409.5 97q8.5 0 14.5 6t6 15v409q0 9 -6 15t-14.5 6t-14.5 -6t-6 -15v-409q0 -9 6 -15t14.5 -6zM614.5 97q8.5 0 14.5 6t6 15v409q0 9 -6 15t-14.5 6t-14.5 -6t-6 -15v-409q0 -9 6 -15t14.5 -6z" />
    <glyph glyph-name="edit" unicode="&#xe60d;" 
d="M752 749q-13 13 -31.5 13t-31.5 -13l-470 -470l188 -188l470 470q13 13 13 31.5t-13 31.5zM407 153l-126 126l439 439v0l126 -126zM956 671l-157 157q-7 6 -16 6t-15.5 -6.5t-6.5 -15.5t7 -16l156 -156q7 -7 16 -7t15.5 6.5t6.5 15.5t-6 16zM62 -66l313 125l-188 188z
M296 75l-155 -62l62 155z" />
    <glyph glyph-name="warning" unicode="&#xe60e;" 
d="M442 173q0 29 20.5 49.5t49.5 20.5t49.5 -20.5t20.5 -49.5t-20.5 -49.5t-49.5 -20.5t-49.5 20.5t-20.5 49.5zM442 595q0 29 20.5 49.5t49.5 20.5t49.5 -20.5t20.5 -49.5v-211q0 -29 -20.5 -49.5t-49.5 -20.5t-49.5 20.5t-20.5 49.5v211zM512 -66q92 0 175 35.5t143.5 96
t96 143.5t35.5 175t-35.5 175t-96 143.5t-143.5 96t-175 35.5t-175 -35.5t-143.5 -96t-96 -143.5t-35.5 -175t35.5 -175t96 -143.5t143.5 -96t175 -35.5z" />
    <glyph glyph-name="question" unicode="&#xe60f;" 
d="M512 834q-92 0 -175 -35.5t-143.5 -96t-96 -143.5t-35.5 -175t35.5 -175t96 -143.5t143.5 -96t175 -35.5t175 35.5t143.5 96t96 143.5t35.5 175t-35.5 175t-96 143.5t-143.5 96t-175 35.5zM497.5 112q-21.5 0 -37 15.5t-15.5 37.5t15.5 37.5t37 15.5t37 -15.5t15.5 -37.5
t-15.5 -37.5t-37 -15.5zM643 446q-11 -21 -25 -35q-15 -15 -54 -51q-11 -10 -17 -17q-6 -8 -9 -14t-5 -12.5t-5 -22.5q-6 -33 -38 -33q-16 0 -27 11t-11 32q0 27 8 47t22 35q13 15 36 35q19 18 29 28q9 9 15 20q6 12 6 25q0 25 -18.5 43t-48.5 18q-34 0 -50.5 -18t-27.5 -53
q-10 -36 -40 -36q-18 0 -30 12.5t-12 27.5q0 31 19 62t55.5 52t85.5 21q46 0 80 -18q35 -17 54 -46.5t19 -64.5q0 -27 -11 -48v0z" />
    <glyph glyph-name="arrowright" unicode="&#xe613;" 
d="M593 384l-242 -242q-11 -11 -11 -27t11 -27t26.5 -11t26.5 11l269 269q12 11 12 27t-12 27l-269 269q-11 11 -26.5 11t-26.5 -11t-11 -27t11 -27z" />
    <glyph glyph-name="arrowleft" unicode="&#xe615;" 
d="M431 383l242 243q11 11 11 26.5t-11 27t-26.5 11.5t-26.5 -12l-269 -268q-12 -12 -12 -27.5t12 -27.5l269 -268q11 -12 26.5 -12t26.5 11.5t11 27t-11 26.5z" />
    <glyph glyph-name="zhichichenggong" unicode="&#xe616;" 
d="M805 417v195q0 30 -21 51t-50 21h-600q-30 0 -51 -21t-21 -51v-349q0 -29 21 -50.5t51 -21.5h505q19 -47 61.5 -77t95.5 -30q69 0 118 49t49 118q-1 66 -46.5 114t-111.5 52zM134 664h600q21 0 36 -15.5t15 -36.5v-56h-703v56q0 21 15.5 36.5t36.5 15.5zM134 212
q-21 0 -36.5 15t-15.5 36v181h703v-27q-68 -4 -114 -56h-152v-42h125q-15 -32 -15 -69q0 -19 4 -39h-499v1zM795 104q-61 0 -103.5 43t-42.5 104t42.5 103.5t103.5 42.5t104 -42.5t43 -103.5t-43 -104t-104 -43zM904 303l-125 -125q-5 -5 -11 -5t-11 5l-70 70
q-11 11 -0.5 22t21.5 0l60 -60l114 114q11 11 22 0q4 -5 4 -11t-4 -10z" />
    <glyph glyph-name="zhichishibai" unicode="&#xe617;" 
d="M805 417v195q0 30 -21 51t-50 21h-600q-30 0 -51 -21t-21 -51v-349q0 -29 21 -50.5t51 -21.5h505q19 -47 61.5 -77t95.5 -30q69 0 118 49t49 118q-1 66 -46.5 114t-111.5 52zM134 664h600q21 0 36 -15.5t15 -36.5v-56h-703v56q0 21 15.5 36.5t36.5 15.5zM134 212
q-21 0 -36.5 15t-15.5 36v181h703v-27q-68 -4 -114 -56h-152v-42h125q-15 -32 -15 -69q0 -19 4 -39h-499v1zM795 104q-61 0 -103.5 43t-42.5 104t42.5 103.5t103.5 42.5t104 -42.5t43 -103.5t-43 -104t-104 -43zM868 171l-151 148q-6 6 0 12t12 0l151 -148q6 -6 0 -12
q-7 -6 -12 0zM880 331q6 -6 0 -12l-151 -149q-6 -5 -12 0.5t0 11.5l151 149q5 6 12 0z" />
    <glyph glyph-name="anzhuo" unicode="&#xe618;" 
d="M385 -66q-30 18 -28 59v115h-46q-21 0 -33 12.5t-12 32.5v406q0 1 1 8h490q1 -17 1 -18v-389q0 -28 -12.5 -40t-41.5 -12h-34v-67q0 -45 1 -48q3 -40 -29 -59h-53q-2 3 -7.5 7.5t-9 8t-5.5 7.5q-5 8 -5 27q-1 18 -1 122h-95q0 -104 1 -113q2 -41 -29 -59h-53zM674 831
q-4 -18 -5 -19q-4 -8 -37 -59q95 -55 125 -153h-492q30 99 127 155q-32 50 -36 57q-1 1 -6 19h11q7 -11 22 -34.5t22 -35.5q107 44 215 -2q32 54 43 72h11zM405 647q11 1 18.5 8.5t7.5 17.5q0 11 -8 19t-19 7q-12 0 -19 -8t-7 -19q1 -11 8.5 -18t18.5 -7zM640 677
q-1 11 -8 18.5t-18 7.5t-19 -8t-8 -19q0 -10 8 -17.5t18 -7.5q12 0 19.5 7.5t7.5 18.5zM122 518q20 37 74 28q15 -2 25 -14t10 -28v-248q0 -31 -32 -40q-50 -15 -77 28v274zM899 244q-18 -35 -65 -31q-44 4 -44 49v238q0 44 44 48q47 4 65 -30v-274z" />
    <glyph glyph-name="ios" unicode="&#xe619;" 
d="M774 357q0 31 10 59.5t22.5 46.5t30.5 34t25.5 21.5t15.5 9.5l1 1q-20 27 -46.5 46t-52.5 27t-44 11.5t-34 4.5q-33 3 -70.5 -7.5t-69 -22.5t-45.5 -12q-16 0 -70.5 20t-88.5 20q-62 -1 -115.5 -31.5t-84.5 -81.5q-31 -50 -38.5 -113t5.5 -124t37.5 -117t56.5 -99
q19 -26 32.5 -42t34 -35.5t42 -28.5t43.5 -8q28 1 73.5 19t85.5 18q37 0 82.5 -18t76.5 -18q24 0 44.5 9t40 27t32 33t31.5 41q39 54 67 128v1q-8 2 -17 6.5t-31 20t-38.5 34t-29.5 51t-14 69.5zM652.5 691.5q26.5 30.5 40.5 68t10 75.5q-37 -1 -76.5 -20t-65.5 -48
q-26 -28 -41.5 -65.5t-10.5 -73.5q39 -3 78 15t65.5 48.5z" />
    <glyph glyph-name="kaishi" unicode="&#xe61a;" 
d="M671 401l-232 218q-20 10 -41 -2q-19 -11 -19 -34v-423q0 -22 19 -34q10 -6 22 -6q10 0 19 4l232 205q8 8 12 11.5t7.5 10.5t3.5 14q0 16 -23 36zM512 887q-102 0 -195 -40t-160.5 -107.5t-107.5 -160.5t-40 -195t40 -195t107.5 -160.5t160.5 -107.5t195 -40t195 40
t160.5 107.5t107.5 160.5t40 195t-40 195t-107.5 160.5t-160.5 107.5t-195 40zM512 -56q-89 0 -170.5 35t-140.5 94t-94 140.5t-35 170.5t35 170.5t94 140.5t140.5 94t170.5 35t170.5 -35t140.5 -94t94 -140.5t35 -170.5t-35 -170.5t-94 -140.5t-140.5 -94t-170.5 -35z" />
    <glyph glyph-name="appstore" unicode="&#xe61b;" 
d="M496 447l-104 -182h283q-33 66 -84 182h-95v0zM508 553q5 9 2 18.5t-11 14.5l-62 35q-8 5 -17.5 2.5t-14.5 -11.5l-94 -165l-105 -182l-87 -152q-4 -8 -1.5 -17.5t10.5 -14.5l62 -36q8 -5 17.5 -2.5t14.5 11.5l121 211l78 137zM170 18l-62 35q-8 5 -15 1.5t-8 -12.5
l-11 -93q-1 -10 4 -13t13 2l80 55q8 5 7.5 12.5t-8.5 12.5zM261 447h-239q-9 0 -15.5 -6t-6.5 -15v-139q0 -9 6.5 -15.5t15.5 -6.5h135zM1002 447h-208q28 -52 63 -120q20 -38 23 -43q5 -9 7 -19h115q9 0 15.5 6.5t6.5 15.5v139q0 9 -6.5 15t-15.5 6zM843 263q-1 0 -1 2
q-3 5 -8 15t-14.5 28t-16.5 31q-1 1 -1 2l-4 8q-1 1 -2 3t-2 3q0 1 -1 3l-1.5 3t-2.5 4.5t-3 4.5l-1 3l-6 12q-1 2 -2 3q-91 173 -131 237q-17 26 -59.5 99.5t-66.5 108.5t-34 30q-5 -2 -6 -11t2 -23t8 -30.5t13 -37t16 -40t17.5 -41.5t17 -39.5t16 -36t12.5 -28.5
q17 -41 39 -90.5t52.5 -117t55 -114t32.5 -50.5q5 -2 9.5 -4t9 -2t7 -0.5t7 1t5.5 1.5t6.5 2.5t6.5 2.5q17 8 29 23.5t2 34.5zM904 34q-8 -7 -12 -12.5t-4.5 -21t11.5 -32.5q12 -15 34 -26t39.5 -19t20.5 -19v0q8 85 -18 123q-23 34 -71 7zM913 116l-29 57q-5 9 -15.5 12.5
t-19.5 -1.5l-35 -18q-10 -5 -12.5 -15t3.5 -19l37 -59q6 -9 16.5 -11.5t19.5 2.5l25 16q9 5 12 15.5t-2 20.5z" />
  </font>
</defs>
</svg>
